# vtk DataFile Version 3.0
Output from R2
ASCII
DATASET POLYDATA
POINTS      96 double
       0.000       0.000       0.000
       1.500       0.000       0.000
       3.000       0.000       0.000
       4.500       0.000       0.000
       6.000       0.000       0.000
       7.500       0.000       0.000
       9.000       0.000       0.000
      10.500       0.000       0.000
      12.000       0.000       0.000
      13.500       0.000       0.000
      15.000       0.000       0.000
      16.500       0.000       0.000
      18.000       0.000       0.000
      19.500       0.000       0.000
      21.000       0.000       0.000
      22.500       0.000       0.000
      24.000       0.000       0.000
      25.500       0.000       0.000
      27.000       0.000       0.000
      28.500       0.000       0.000
      30.000       0.000       0.000
      31.500       0.000       0.000
      33.000       0.000       0.000
      34.500       0.000       0.000
      36.000       0.000       0.000
      37.500       0.000       0.000
      39.000       0.000       0.000
      40.500       0.000       0.000
      42.000       0.000       0.000
      43.500       0.000       0.000
      45.000       0.000       0.000
      46.500       0.000       0.000
      48.000       0.000       0.000
      49.500       0.000       0.000
      51.000       0.000       0.000
      52.500       0.000       0.000
      54.000       0.000       0.000
      55.500       0.000       0.000
      57.000       0.000       0.000
      58.500       0.000       0.000
      60.000       0.000       0.000
      61.500       0.000       0.000
      63.000       0.000       0.000
      64.500       0.000       0.000
      66.000       0.000       0.000
      67.500       0.000       0.000
      69.000       0.000       0.000
      70.500       0.000       0.000
      72.000       0.000       0.000
      73.500       0.000       0.000
      75.000       0.000       0.000
      76.500       0.000       0.000
      78.000       0.000       0.000
      79.500       0.000       0.000
      81.000       0.000       0.000
      82.500       0.000       0.000
      84.000       0.000       0.000
      85.500       0.000       0.000
      87.000       0.000       0.000
      88.500       0.000       0.000
      90.000       0.000       0.000
      91.500       0.000       0.000
      93.000       0.000       0.000
      94.500       0.000       0.000
      96.000       0.000       0.000
      97.500       0.000       0.000
      99.000       0.000       0.000
     100.500       0.000       0.000
     102.000       0.000       0.000
     103.500       0.000       0.000
     105.000       0.000       0.000
     106.500       0.000       0.000
     108.000       0.000       0.000
     109.500       0.000       0.000
     111.000       0.000       0.000
     112.500       0.000       0.000
     114.000       0.000       0.000
     115.500       0.000       0.000
     117.000       0.000       0.000
     118.500       0.000       0.000
     120.000       0.000       0.000
     121.500       0.000       0.000
     123.000       0.000       0.000
     124.500       0.000       0.000
     126.000       0.000       0.000
     127.500       0.000       0.000
     129.000       0.000       0.000
     130.500       0.000       0.000
     132.000       0.000       0.000
     133.500       0.000       0.000
     135.000       0.000       0.000
     136.500       0.000       0.000
     138.000       0.000       0.000
     139.500       0.000       0.000
     141.000       0.000       0.000
     142.500       0.000       0.000
